<svg version="1.1" id="Layer_1" xmlns="http://www.w3.org/2000/svg" xmlns:xlink="http://www.w3.org/1999/xlink" x="0px" y="0px"
	 width="100%" viewBox="0 0 7813 7413" enable-background="new 0 0 7813 7413" xml:space="preserve">
<path fill="#0180C7" opacity="1.000000" stroke="none" 
	d="
M1100.000000,3.999999 
	C2974.806396,4.000000 4849.612793,4.000000 6727.815430,4.217325 
	C6747.347168,7.981487 6763.645020,9.072573 6781.830566,7.887696 
	C6836.727539,12.331828 6889.467285,19.491112 6941.539062,31.291454 
	C7202.110352,90.341270 7415.524902,224.868622 7581.545410,433.750854 
	C7696.449219,578.319336 7769.221191,742.579529 7802.983887,924.059631 
	C7812.254883,973.895203 7818.369629,1024.119995 7816.281250,1076.899048 
	C7815.937500,1096.123657 7815.994629,1113.450195 7815.994629,1130.776611 
	C7815.993652,2846.235107 7815.987793,4561.693848 7816.028809,6277.152344 
	C7816.028809,6283.780762 7816.697266,6290.408691 7816.998047,6298.824219 
	C7816.791992,6319.155762 7816.640625,6337.700684 7816.351562,6358.045898 
	C7815.749512,6398.434082 7808.939941,6436.280273 7802.578125,6474.151367 
	C7793.790039,6526.466797 7777.425781,6576.993652 7765.527832,6628.580566 
	C7765.240234,6629.828125 7764.343262,6630.935547 7762.750000,6633.079102 
	C7757.081543,6645.041016 7751.689941,6655.791016 7747.842773,6667.067871 
	C7737.713867,6696.761719 7724.440430,6725.115234 7711.078613,6753.365234 
	C7693.999512,6789.473633 7674.582520,6824.338379 7653.439941,6858.333984 
	C7635.483887,6887.206543 7616.331055,6915.148926 7595.859375,6942.204102 
	C7583.843262,6958.083984 7570.729980,6973.131348 7558.191895,6988.619629 
	C7542.722168,7007.729492 7527.108887,7026.686035 7509.818848,7044.236328 
	C7478.518555,7076.007812 7446.424316,7106.860352 7411.481934,7134.694336 
	C7386.521484,7154.577637 7361.577148,7174.409180 7335.271484,7192.548828 
	C7287.464355,7225.513184 7237.371094,7254.428711 7185.014648,7279.473145 
	C7173.006836,7285.216797 7161.145020,7291.386230 7148.770508,7296.221191 
	C7113.469238,7310.013184 7078.146484,7323.804688 7042.421387,7336.434082 
	C7021.133789,7343.959473 6999.358887,7350.642090 6977.298340,7355.323242 
	C6939.644531,7363.311523 6902.426270,7373.559570 6863.849609,7377.206055 
	C6844.084473,7379.073730 6824.671875,7384.404785 6804.599609,7384.102051 
	C6801.954102,7384.062012 6799.136719,7384.074219 6796.678223,7384.896484 
	C6785.004883,7388.799805 6772.973633,7387.966309 6761.009277,7387.968262 
	C6539.739258,7387.999512 6318.469238,7388.017090 6097.199219,7388.018066 
	C4866.217773,7388.021484 3635.236816,7388.018555 2404.255615,7388.037598 
	C2396.266357,7388.037598 2388.270508,7388.175781 2380.292480,7388.558105 
	C2378.514404,7388.642578 2376.798096,7390.029785 2375.248535,7390.729492 
	C2374.565674,7396.150391 2373.934814,7401.157715 2373.163818,7407.277344 
	C2365.689941,7407.632812 2359.149170,7408.184082 2352.606201,7408.211914 
	C2328.613525,7408.314941 2304.618408,7408.077637 2280.628418,7408.346191 
	C2274.092773,7408.418945 2267.572266,7409.815918 2259.137695,7410.981934 
	C2195.984131,7411.733887 2134.734863,7411.863770 2073.491943,7412.542480 
	C1983.626465,7413.538086 1893.765381,7414.926758 1802.080322,7415.734375 
	C1762.885254,7415.740723 1725.512329,7416.161133 1686.278076,7416.271484 
	C1681.761353,7415.895020 1679.105835,7415.770020 1676.450195,7415.770508 
	C1559.545654,7415.803711 1442.640991,7415.837891 1325.736450,7415.920898 
	C1321.104126,7415.923828 1316.472168,7416.390625 1309.980225,7416.471680 
	C1279.967285,7415.857910 1251.815063,7415.334473 1223.660522,7415.027344 
	C1217.157959,7414.956055 1210.647217,7415.626953 1202.268311,7415.805664 
	C1143.097046,7414.226074 1085.787598,7413.108398 1028.501099,7411.272949 
	C981.220093,7409.758301 934.012268,7407.379395 887.040588,7400.794922 
	C788.671204,7387.006348 694.226074,7359.944824 604.668518,7317.075195 
	C369.802734,7204.649902 202.855972,7026.853027 100.042694,6788.426758 
	C58.345860,6691.730957 33.050430,6590.520996 23.147507,6485.607910 
	C20.330702,6455.767090 18.231894,6425.855469 16.010099,6395.961426 
	C13.987147,6368.743164 12.243971,6341.503906 10.979385,6312.272461 
	C11.692396,6296.948242 11.900432,6283.626465 11.900941,6270.304199 
	C11.966867,4545.500488 12.018971,2820.696533 12.013289,1095.892700 
	C12.013270,1089.943481 11.165345,1083.994385 10.526870,1076.308228 
	C11.693073,1055.301880 12.374482,1035.956421 14.547745,1016.779907 
	C18.296911,983.697815 23.037561,950.729004 27.248640,917.698181 
	C38.511932,829.351440 60.233749,743.636414 94.625610,661.503967 
	C208.730270,389.006592 405.866333,201.347870 679.061829,91.955391 
	C729.872009,71.610054 782.738281,57.931068 835.540283,43.958614 
	C905.292175,25.500866 976.086182,13.589800 1049.764648,8.178465 
	C1067.713745,7.034562 1083.856812,5.517280 1100.000000,3.999999 
M1783.958252,6840.041992 
	C1783.958252,6840.041992 1783.963257,6839.919434 1784.817017,6841.751465 
	C1785.904663,6842.511719 1786.992432,6843.272461 1787.960571,6844.044434 
	C1787.960571,6844.044434 1787.957153,6843.924805 1789.339111,6846.038086 
	C1790.873413,6846.700195 1792.407715,6847.362305 1796.387573,6848.655762 
	C1798.581421,6850.117188 1801.062012,6851.282227 1802.925781,6853.084961 
	C1827.706177,6877.060547 1851.648804,6901.851562 1877.917847,6924.341309 
	C1899.541382,6942.854004 1918.455444,6964.303711 1940.182861,6982.955078 
	C1969.328979,7007.974609 1996.221436,7035.614258 2024.211914,7061.990234 
	C2031.430054,7068.791992 2039.038940,7075.191895 2046.654663,7081.552734 
	C2050.792480,7085.008301 2054.855225,7088.347168 2056.633545,7096.906738 
	C2057.269775,7098.059082 2057.680176,7099.437988 2058.575439,7100.331055 
	C2078.213379,7119.922363 2097.806396,7139.562012 2117.706299,7158.884277 
	C2120.326660,7161.428711 2124.569336,7162.301758 2128.000000,7164.000000 
	C2128.000000,7164.000000 2128.033447,7163.928711 2128.900146,7166.476562 
	C2131.518555,7169.456055 2133.973145,7172.600586 2136.780273,7175.390137 
	C2179.565430,7217.911133 2222.381104,7260.401855 2265.248779,7302.839355 
	C2268.527344,7306.084961 2272.246826,7308.885742 2278.707031,7311.992188 
	C2282.379150,7313.354004 2286.519287,7314.040527 2289.636963,7316.201660 
	C2300.005127,7323.387695 2309.739014,7331.500000 2320.197754,7338.541992 
	C2349.485596,7358.260254 2340.657715,7355.976562 2377.388184,7355.977051 
	C3826.407959,7356.003418 5275.427734,7356.000488 6724.447754,7355.999023 
	C6733.112793,7355.999023 6741.778320,7356.047363 6750.441895,7355.943359 
	C6754.431641,7355.895508 6758.435547,7355.706055 6762.402344,7355.287109 
	C6784.817383,7352.920898 6807.235352,7350.570312 6829.628418,7348.003906 
	C6844.785645,7346.267090 6860.014648,7344.803711 6875.013184,7342.112305 
	C6897.237305,7338.123535 6919.231934,7332.870117 6941.419922,7328.659668 
	C6995.960449,7318.310059 7048.030762,7300.007812 7099.646973,7280.167969 
	C7137.012695,7265.805664 7173.078125,7248.543457 7208.273438,7229.625000 
	C7236.972168,7214.198730 7265.561523,7198.300293 7292.754395,7180.414062 
	C7322.712402,7160.707520 7351.679199,7139.327637 7379.846680,7117.115234 
	C7404.337891,7097.801270 7428.776855,7078.188477 7450.420898,7055.530762 
	C7473.395508,7031.479980 7498.759766,7009.771484 7519.175293,6983.186035 
	C7533.319824,6964.766113 7549.847656,6948.164062 7563.811523,6929.620605 
	C7596.269531,6886.514648 7626.046875,6841.478516 7652.371582,6794.407715 
	C7676.434082,6751.383301 7697.745605,6706.766602 7714.818848,6660.506836 
	C7728.638672,6623.062012 7740.630371,6584.828613 7751.219238,6546.335938 
	C7763.022949,6503.427734 7772.176270,6459.903320 7776.800293,6415.378418 
	C7779.749023,6386.986328 7785.049316,6358.864258 7784.100098,6330.145020 
	C7784.013184,6327.495605 7783.896484,6324.668945 7784.671387,6322.200195 
	C7789.165527,6307.876953 7787.949219,6293.156250 7787.951172,6278.542480 
	C7787.989746,5967.276367 7787.980957,5656.010742 7787.976074,5344.744629 
	C7787.976074,5338.746582 7788.352051,5332.700684 7787.717285,5326.767090 
	C7787.311035,5322.966309 7785.368164,5319.330566 7785.860840,5312.812500 
	C7786.338867,5303.544922 7787.234863,5294.276855 7787.235352,5285.009277 
	C7787.297363,3905.709961 7787.309082,2526.410645 7787.191406,1147.111206 
	C7787.188965,1118.468140 7786.026855,1089.808472 7784.760742,1061.185181 
	C7781.774414,993.715332 7771.093750,927.319885 7754.787109,861.877258 
	C7665.585449,503.892914 7397.162109,213.330780 7047.352539,95.754120 
	C6964.244629,67.820244 6879.042480,50.300179 6791.619141,42.958748 
	C6753.667969,39.771751 6715.726562,39.396416 6677.739746,39.394817 
	C5615.765625,39.350155 4553.791992,39.358944 3491.817871,39.358971 
	C3261.823486,39.358974 3031.829346,39.359150 2801.834961,39.359245 
	C2793.889648,39.359249 2785.944092,39.359245 2778.414551,39.359245 
	C2770.511719,52.438801 2759.542969,59.565952 2747.060791,65.062897 
	C2738.547119,68.812202 2730.247070,73.169350 2722.220215,77.882637 
	C2580.120605,161.320435 2442.835693,251.990479 2311.576904,351.689484 
	C2156.755371,469.285950 2011.915771,598.007812 1879.604858,740.575745 
	C1768.368530,860.435242 1665.373901,987.070374 1570.266968,1120.093872 
	C1423.604492,1325.226562 1299.579590,1543.055054 1202.352661,1775.947510 
	C1108.756958,2000.141602 1043.070557,2232.238770 1005.008362,2472.126221 
	C992.373230,2551.759033 982.540710,2631.768066 975.043518,2712.083496 
	C967.729675,2790.435547 962.714966,2868.916748 960.786011,2947.545166 
	C958.856934,3026.180420 959.150818,3104.823242 962.861572,3183.467529 
	C967.230835,3276.066650 975.103760,3368.284424 987.082275,3460.206787 
	C997.764832,3542.183105 1011.733276,3623.581055 1029.155273,3704.352783 
	C1086.223145,3968.929688 1177.356689,4221.342773 1301.145874,4461.984375 
	C1429.850098,4712.180664 1589.034790,4941.661133 1772.440552,5154.646484 
	C1838.588501,5231.463379 1907.480103,5305.742188 1979.008301,5377.574219 
	C2001.136841,5399.795898 2022.435791,5422.750977 2041.478271,5447.710938 
	C2060.547119,5472.706055 2077.321289,5499.065918 2089.007568,5528.417480 
	C2104.068359,5566.244141 2110.066650,5605.151367 2105.215820,5645.893555 
	C2100.672363,5684.053223 2089.152588,5719.983398 2073.806641,5754.899414 
	C2050.921387,5806.968750 2021.490601,5855.295410 1989.221313,5901.967773 
	C1923.965332,5996.350586 1845.545044,6078.685547 1758.808228,6153.387695 
	C1684.948120,6216.999512 1606.366943,6274.342285 1525.334717,6328.362793 
	C1484.862305,6355.344238 1443.748047,6381.361816 1403.113037,6408.102051 
	C1395.948853,6412.815918 1388.907837,6418.225586 1383.226562,6424.580566 
	C1370.655762,6438.641602 1372.392578,6450.490723 1387.194824,6461.814453 
	C1396.921387,6469.256348 1408.268188,6472.562012 1418.398804,6477.517090 
	C1416.094238,6482.637695 1419.311035,6486.489746 1421.589844,6490.397461 
	C1433.169434,6510.253906 1450.562622,6524.952637 1467.063599,6540.267578 
	C1486.964600,6558.739258 1508.027222,6575.954590 1528.083130,6594.265625 
	C1544.239624,6609.016113 1559.775757,6624.388672 1576.199219,6638.922363 
	C1607.487671,6666.609863 1636.991089,6696.312988 1667.275391,6725.137695 
	C1679.757935,6737.018555 1690.981934,6750.191406 1705.384155,6760.118652 
	C1709.947510,6763.263672 1712.507568,6769.315430 1716.607300,6776.500488 
	C1717.763306,6777.680664 1718.919189,6778.860840 1719.956665,6780.040039 
	C1719.956665,6780.040039 1719.967163,6779.920898 1720.855835,6781.723633 
	C1721.930298,6782.494141 1723.004639,6783.264648 1723.959717,6784.041016 
	C1723.959717,6784.041016 1723.963867,6783.920898 1725.085083,6786.353516 
	C1739.437134,6800.836426 1753.628540,6815.485352 1768.270996,6829.667969 
	C1771.360718,6832.659668 1776.104736,6833.942871 1779.969849,6836.039062 
	C1779.969849,6836.039062 1779.963501,6835.919434 1780.813110,6837.755371 
	C1781.902222,6838.515137 1782.991333,6839.275391 1783.958252,6840.041992 
z"/>
<path fill="#FEFEFF" opacity="1.000000" stroke="none" 
	d="
M7816.655273,1075.000854 
	C7818.369629,1024.119995 7812.254883,973.895203 7802.983887,924.059631 
	C7769.221191,742.579529 7696.449219,578.319336 7581.545410,433.750854 
	C7415.524902,224.868622 7202.110352,90.341270 6941.539062,31.291454 
	C6889.467285,19.491112 6836.727539,12.331828 6781.736328,6.966551 
	C6779.918945,5.850394 6780.000000,4.000000 6780.000000,4.000000 
	C7126.379395,4.000000 7472.758301,4.000000 7820.000000,4.000000 
	C7820.000000,360.083099 7820.000000,716.166931 7819.173828,1073.842896 
	C7818.347168,1075.435059 7816.655273,1075.000854 7816.655273,1075.000854 
z"/>
<path fill="#FEFEFF" opacity="1.000000" stroke="none" 
	d="
M1047.958862,7.805086 
	C976.086182,13.589800 905.292175,25.500866 835.540283,43.958614 
	C782.738281,57.931068 729.872009,71.610054 679.061829,91.955391 
	C405.866333,201.347870 208.730270,389.006592 94.625610,661.503967 
	C60.233749,743.636414 38.511932,829.351440 27.248640,917.698181 
	C23.037561,950.729004 18.296911,983.697815 14.547745,1016.779907 
	C12.374482,1035.956421 11.693073,1055.301880 9.436919,1076.799805 
	C7.022355,1079.352051 5.511175,1079.676025 3.999997,1080.000000 
	C4.000000,721.629578 4.000000,363.259186 4.000000,4.000000 
	C350.749725,4.000000 697.500244,4.000000 1046.220459,4.952410 
	C1048.190186,5.904820 1047.958862,7.805086 1047.958862,7.805086 
z"/>
<path fill="#FEFFFF" opacity="1.000000" stroke="none" 
	d="
M7763.730469,6632.107910 
	C7764.343262,6630.935547 7765.240234,6629.828125 7765.527832,6628.580566 
	C7777.425781,6576.993652 7793.790039,6526.466797 7802.578125,6474.151367 
	C7808.939941,6436.280273 7815.749512,6398.434082 7817.230957,6358.006836 
	C7818.247559,6356.166504 7820.000000,6356.000000 7820.000000,6356.000000 
	C7820.000000,6710.367676 7820.000000,7064.734863 7820.000000,7420.000000 
	C7483.916992,7420.000000 7147.833008,7420.000000 6811.098633,7418.916016 
	C6818.104492,7417.254883 6825.791504,7416.935059 6833.410156,7416.032715 
	C6842.260742,7414.984375 6851.050293,7413.424805 6861.609863,7411.994629 
	C6913.786133,7407.188965 6963.654785,7398.939453 7012.792969,7386.729492 
	C7370.955566,7297.728027 7653.391602,7025.178711 7754.739258,6670.818848 
	C7758.377441,6658.098633 7760.761719,6645.019531 7763.730469,6632.107910 
z"/>
<path fill="#FDFFFF" opacity="1.000000" stroke="none" 
	d="
M10.377474,6314.273926 
	C12.243971,6341.503906 13.987147,6368.743164 16.010099,6395.961426 
	C18.231894,6425.855469 20.330702,6455.767090 23.147507,6485.607910 
	C33.050430,6590.520996 58.345860,6691.730957 100.042694,6788.426758 
	C202.855972,7026.853027 369.802734,7204.649902 604.668518,7317.075195 
	C694.226074,7359.944824 788.671204,7387.006348 887.040588,7400.794922 
	C934.012268,7407.379395 981.220093,7409.758301 1028.501099,7411.272949 
	C1085.787598,7413.108398 1143.097046,7414.226074 1202.347168,7416.820312 
	C1204.198608,7418.657715 1204.099243,7419.328613 1204.000000,7420.000000 
	C804.303345,7420.000000 404.606689,7420.000000 4.000000,7420.000000 
	C4.000000,7051.916992 4.000000,6683.833008 5.132653,6314.029297 
	C7.636017,6312.964355 9.006728,6313.619141 10.377474,6314.273926 
z"/>
<path fill="#369BD3" opacity="1.000000" stroke="none" 
	d="
M10.979351,6312.272461 
	C9.006728,6313.619141 7.636017,6312.964355 5.132653,6312.154297 
	C4.000000,4569.221191 4.000000,2826.442383 3.999997,1081.831787 
	C5.511175,1079.676025 7.022355,1079.352051 9.623486,1078.536621 
	C11.165345,1083.994385 12.013270,1089.943481 12.013289,1095.892700 
	C12.018971,2820.696533 11.966867,4545.500488 11.900941,6270.304199 
	C11.900432,6283.626465 11.692396,6296.948242 10.979351,6312.272461 
z"/>
<path fill="#3C9CD2" opacity="1.000000" stroke="none" 
	d="
M7816.281250,1076.899048 
	C7816.655273,1075.000854 7818.347168,1075.435059 7819.173828,1075.717529 
	C7820.000000,2814.806396 7820.000000,4553.612793 7819.351074,6294.717773 
	C7818.702148,6297.016602 7817.053711,6297.037109 7817.053711,6297.037109 
	C7816.697266,6290.408691 7816.028809,6283.780762 7816.028809,6277.152344 
	C7815.987793,4561.693848 7815.993652,2846.235107 7815.994629,1130.776611 
	C7815.994629,1113.450195 7815.937500,1096.123657 7816.281250,1076.899048 
z"/>
<path fill="#A3D4E6" opacity="1.000000" stroke="none" 
	d="
M5244.000000,7420.000000 
	C4322.559082,7420.000000 3401.118408,7420.000000 2477.761719,7419.139648 
	C2475.845459,7418.278809 2475.827637,7416.550293 2477.687500,7416.224609 
	C2484.210449,7415.857910 2488.873535,7415.782715 2493.536865,7415.782715 
	C3337.687744,7415.778320 4181.838379,7415.761230 5025.989258,7415.807617 
	C5098.607910,7415.811523 5171.226562,7416.224609 5243.911133,7417.334473 
	C5243.977051,7418.221191 5244.000000,7420.000000 5244.000000,7420.000000 
z"/>
<path fill="#E1FDFE" opacity="1.000000" stroke="none" 
	d="
M2475.827637,7416.550293 
	C2475.827637,7416.550293 2475.845459,7418.278809 2475.922852,7419.139648 
	C2253.249756,7420.000000 2030.499512,7420.000000 1805.794678,7419.038574 
	C1803.840210,7418.077148 1803.902466,7416.147949 1803.902466,7416.148438 
	C1893.765381,7414.926758 1983.626465,7413.538086 2073.491943,7412.542480 
	C2134.734863,7411.863770 2195.984131,7411.733887 2260.877441,7411.303223 
	C2311.060303,7411.088379 2357.596436,7410.929199 2405.799805,7411.153809 
	C2414.298584,7411.487305 2421.129883,7411.436523 2429.688965,7411.755371 
	C2446.220459,7413.600098 2461.023926,7415.075195 2475.827637,7416.550293 
z"/>
<path fill="#2F8BBF" opacity="1.000000" stroke="none" 
	d="
M6544.000000,7420.000000 
	C6249.249512,7420.000000 5954.499512,7420.000000 5657.755859,7419.128906 
	C5655.763184,7418.257812 5655.430664,7416.531250 5657.342285,7416.276855 
	C5666.580078,7415.928711 5673.906250,7415.753418 5681.232422,7415.753418 
	C5961.698730,7415.746582 6242.165039,7415.749512 6522.631348,7415.794434 
	C6529.946289,7415.795898 6537.260742,7416.281250 6544.410156,7417.402344 
	C6544.244629,7418.263184 6544.000000,7420.000000 6544.000000,7420.000000 
z"/>
<path fill="#78B5D6" opacity="1.000000" stroke="none" 
	d="
M5655.430664,7416.531250 
	C5655.430664,7416.531250 5655.763184,7418.257812 5655.881836,7419.128906 
	C5519.916504,7420.000000 5383.832520,7420.000000 5245.874512,7420.000000 
	C5244.000000,7420.000000 5243.977051,7418.221191 5245.772461,7417.009766 
	C5254.897461,7415.727051 5262.227051,7415.580078 5269.556641,7415.597168 
	C5398.181152,7415.896484 5526.806152,7416.215820 5655.430664,7416.531250 
z"/>
<path fill="#78B5D6" opacity="1.000000" stroke="none" 
	d="
M1311.839966,7416.641113 
	C1316.472168,7416.390625 1321.104126,7415.923828 1325.736450,7415.920898 
	C1442.640991,7415.837891 1559.545654,7415.803711 1676.450195,7415.770508 
	C1679.105835,7415.770020 1681.761353,7415.895020 1686.235596,7417.125488 
	C1688.054321,7418.290039 1688.000000,7420.000000 1688.000000,7420.000000 
	C1563.916382,7420.000000 1439.832886,7420.000000 1313.833862,7419.160156 
	C1311.918457,7418.320312 1311.839966,7416.641113 1311.839966,7416.641113 
z"/>
<path fill="#78B5D6" opacity="1.000000" stroke="none" 
	d="
M6545.874512,7420.000000 
	C6544.000000,7420.000000 6544.244629,7418.263184 6546.234375,7417.413086 
	C6621.518555,7416.124023 6694.813477,7415.741211 6768.106934,7415.188477 
	C6780.086914,7415.098145 6792.059570,7414.184570 6804.039551,7413.782715 
	C6822.646973,7413.159180 6841.257324,7412.647461 6859.866699,7412.087891 
	C6851.050293,7413.424805 6842.260742,7414.984375 6833.410156,7416.032715 
	C6825.791504,7416.935059 6818.104492,7417.254883 6809.223633,7418.916016 
	C6721.249512,7420.000000 6634.499512,7420.000000 6545.874512,7420.000000 
z"/>
<path fill="#A3D4E6" opacity="1.000000" stroke="none" 
	d="
M1689.874634,7420.000000 
	C1688.000000,7420.000000 1688.054321,7418.290039 1688.096802,7417.435547 
	C1725.512329,7416.161133 1762.885254,7415.740723 1802.080322,7415.734375 
	C1803.902466,7416.147949 1803.840210,7418.077148 1803.920166,7419.038574 
	C1766.583130,7420.000000 1729.166138,7420.000000 1689.874634,7420.000000 
z"/>
<path fill="#A3D4E6" opacity="1.000000" stroke="none" 
	d="
M1309.980225,7416.471680 
	C1311.839966,7416.641113 1311.918457,7418.320312 1311.959229,7419.160156 
	C1277.249756,7420.000000 1242.499512,7420.000000 1205.874634,7420.000000 
	C1204.099243,7419.328613 1204.198608,7418.657715 1204.218994,7416.971680 
	C1210.647217,7415.626953 1217.157959,7414.956055 1223.660522,7415.027344 
	C1251.815063,7415.334473 1279.967285,7415.857910 1309.980225,7416.471680 
z"/>
<path fill="#A3D4E6" opacity="1.000000" stroke="none" 
	d="
M7816.998047,6298.824219 
	C7817.053711,6297.037109 7818.702148,6297.016602 7819.351074,6296.508301 
	C7820.000000,6314.757324 7820.000000,6333.514160 7820.000000,6354.135742 
	C7820.000000,6356.000000 7818.247559,6356.166504 7817.368164,6356.206055 
	C7816.640625,6337.700684 7816.791992,6319.155762 7816.998047,6298.824219 
z"/>
<path fill="#A3D4E6" opacity="1.000000" stroke="none" 
	d="
M6778.147461,4.000000 
	C6780.000000,4.000000 6779.918945,5.850394 6780.013672,6.771540 
	C6763.645020,9.072573 6747.347168,7.981487 6729.606445,4.217325 
	C6744.098145,4.000000 6760.196289,4.000000 6778.147461,4.000000 
z"/>
<path fill="#A3D4E6" opacity="1.000000" stroke="none" 
	d="
M1049.764648,8.178465 
	C1047.958862,7.805086 1048.190186,5.904820 1048.095093,4.952410 
	C1064.098145,4.000000 1080.196411,4.000000 1098.147217,3.999999 
	C1083.856812,5.517280 1067.713745,7.034562 1049.764648,8.178465 
z"/>
<path fill="#FFFFFF" opacity="1.000000" stroke="none" 
	d="
M1419.836426,6475.461914 
	C1408.268188,6472.562012 1396.921387,6469.256348 1387.194824,6461.814453 
	C1372.392578,6450.490723 1370.655762,6438.641602 1383.226562,6424.580566 
	C1388.907837,6418.225586 1395.948853,6412.815918 1403.113037,6408.102051 
	C1443.748047,6381.361816 1484.862305,6355.344238 1525.334717,6328.362793 
	C1606.366943,6274.342285 1684.948120,6216.999512 1758.808228,6153.387695 
	C1845.545044,6078.685547 1923.965332,5996.350586 1989.221313,5901.967773 
	C2021.490601,5855.295410 2050.921387,5806.968750 2073.806641,5754.899414 
	C2089.152588,5719.983398 2100.672363,5684.053223 2105.215820,5645.893555 
	C2110.066650,5605.151367 2104.068359,5566.244141 2089.007568,5528.417480 
	C2077.321289,5499.065918 2060.547119,5472.706055 2041.478271,5447.710938 
	C2022.435791,5422.750977 2001.136841,5399.795898 1979.008301,5377.574219 
	C1907.480103,5305.742188 1838.588501,5231.463379 1772.440552,5154.646484 
	C1589.034790,4941.661133 1429.850098,4712.180664 1301.145874,4461.984375 
	C1177.356689,4221.342773 1086.223145,3968.929688 1029.155273,3704.352783 
	C1011.733276,3623.581055 997.764832,3542.183105 987.082275,3460.206787 
	C975.103760,3368.284424 967.230835,3276.066650 962.861572,3183.467529 
	C959.150818,3104.823242 958.856934,3026.180420 960.786011,2947.545166 
	C962.714966,2868.916748 967.729675,2790.435547 975.043518,2712.083496 
	C982.540710,2631.768066 992.373230,2551.759033 1005.008362,2472.126221 
	C1043.070557,2232.238770 1108.756958,2000.141602 1202.352661,1775.947510 
	C1299.579590,1543.055054 1423.604492,1325.226562 1570.266968,1120.093872 
	C1665.373901,987.070374 1768.368530,860.435242 1879.604858,740.575745 
	C2011.915771,598.007812 2156.755371,469.285950 2311.576904,351.689484 
	C2442.835693,251.990479 2580.120605,161.320435 2722.220215,77.882637 
	C2730.247070,73.169350 2738.547119,68.812202 2747.060791,65.062897 
	C2759.542969,59.565952 2770.511719,52.438801 2778.414551,39.359245 
	C2785.944092,39.359245 2793.889648,39.359249 2801.834961,39.359245 
	C3031.829346,39.359150 3261.823486,39.358974 3491.817871,39.358971 
	C4553.791992,39.358944 5615.765625,39.350155 6677.739746,39.394817 
	C6715.726562,39.396416 6753.667969,39.771751 6791.619141,42.958748 
	C6879.042480,50.300179 6964.244629,67.820244 7047.352539,95.754120 
	C7397.162109,213.330780 7665.585449,503.892914 7754.787109,861.877258 
	C7771.093750,927.319885 7781.774414,993.715332 7784.760742,1061.185181 
	C7786.026855,1089.808472 7787.188965,1118.468140 7787.191406,1147.111206 
	C7787.309082,2526.410645 7787.297363,3905.709961 7787.235352,5285.009277 
	C7787.234863,5294.276855 7786.338867,5303.544922 7783.451660,5314.147949 
	C7766.089844,5317.289062 7755.728027,5326.500000 7746.204102,5337.070801 
	C7737.732422,5346.473145 7729.652344,5356.269043 7720.710938,5365.202148 
	C7450.362305,5635.307129 7145.259277,5858.035156 6806.788086,6035.228516 
	C6622.282227,6131.820312 6430.497070,6211.415039 6234.011230,6279.940918 
	C6086.746582,6331.300781 5937.124023,6374.580078 5785.187012,6409.874512 
	C5688.477539,6432.339355 5591.142090,6451.652832 5493.058594,6466.912109 
	C5433.828125,6476.126953 5374.376465,6484.115723 5314.844727,6491.138184 
	C5265.893555,6496.912109 5216.739258,6501.302734 5167.565918,6504.766113 
	C5104.420410,6509.214355 5041.208496,6513.620117 4977.950684,6515.392578 
	C4828.618164,6519.577148 4679.343262,6517.637695 4530.403320,6504.580078 
	C4470.005859,6499.285156 4409.523926,6494.369629 4349.388184,6486.828125 
	C4280.008789,6478.126953 4210.849121,6467.460938 4141.809082,6456.314941 
	C4028.656982,6438.048340 3916.725098,6413.697754 3805.520020,6386.010254 
	C3665.198975,6351.073242 3526.867432,6309.445312 3390.121826,6262.460938 
	C3309.700928,6234.828613 3227.455811,6227.793457 3143.826660,6243.654785 
	C3111.819336,6249.725098 3080.248047,6258.261719 3048.679443,6266.450195 
	C2923.596680,6298.895020 2799.920410,6336.271973 2676.278564,6373.717285 
	C2473.051025,6435.265137 2266.749268,6481.542969 2054.955566,6501.369629 
	C2000.514282,6506.465820 1946.001343,6510.266113 1891.360718,6511.546875 
	C1809.356201,6513.469238 1727.430542,6511.999512 1645.625854,6504.833496 
	C1591.166504,6500.062500 1536.923828,6493.909180 1482.971191,6485.111328 
	C1461.960327,6481.685547 1440.883301,6478.666504 1419.836426,6475.461914 
M2100.292236,2287.192139 
	C2093.685303,2313.459717 2092.584229,2340.034668 2098.000732,2366.500000 
	C2113.187012,2440.699463 2168.534180,2494.214844 2243.324951,2508.132324 
	C2284.713135,2515.834473 2326.361084,2519.928467 2368.506592,2519.978027 
	C2549.166748,2520.190674 2729.826416,2520.742920 2910.486328,2521.083252 
	C2920.472656,2521.102051 2930.457764,2520.093018 2940.447998,2519.986572 
	C2954.210938,2519.839600 2964.560303,2525.437988 2970.789795,2538.899902 
	C2953.553223,2561.458740 2936.862549,2583.893555 2919.565918,2605.851074 
	C2700.954590,2883.370117 2482.246094,3160.812744 2263.587891,3438.294678 
	C2223.156738,3489.602783 2182.873047,3541.027344 2142.452148,3592.343262 
	C2118.012451,3623.370605 2096.476807,3656.127197 2081.968506,3693.093750 
	C2063.920654,3739.078613 2059.012695,3786.067383 2072.366455,3834.120850 
	C2093.394287,3909.790039 2139.965820,3961.205078 2216.058594,3984.348633 
	C2244.246582,3992.921631 2273.125732,3997.454102 2302.395508,4000.082275 
	C2353.599365,4004.679199 2404.923584,4004.605957 2456.258301,4004.480713 
	C2546.921387,4004.259277 2637.584229,4004.132324 2728.247314,4003.929932 
	C2940.905273,4003.455078 3153.563232,4003.008789 3366.220703,4002.382080 
	C3384.202637,4002.329102 3402.223145,4001.549805 3420.151855,4000.158203 
	C3451.025146,3997.761719 3480.570312,3989.918945 3508.073730,3975.469727 
	C3549.585693,3953.660645 3578.011230,3920.451904 3591.879639,3875.598389 
	C3605.626221,3831.138672 3605.104492,3786.219482 3592.805420,3741.524658 
	C3578.187012,3688.402344 3544.639404,3651.978027 3493.656494,3631.509521 
	C3486.255615,3628.538330 3478.660400,3625.965820 3471.001709,3623.737061 
	C3440.695312,3614.916504 3409.651367,3611.642090 3378.164307,3611.599854 
	C3271.501465,3611.457031 3164.838867,3611.047607 3058.176025,3611.054688 
	C2927.513672,3611.063477 2796.851562,3611.399658 2666.189209,3611.548340 
	C2659.790039,3611.555664 2653.390381,3611.118652 2644.659668,3610.804688 
	C2648.199951,3604.962891 2650.139648,3600.928955 2652.821289,3597.469727 
	C2673.236816,3571.134033 2693.687744,3544.823975 2714.329590,3518.665283 
	C2923.677002,3253.366211 3133.098877,2988.125244 3342.407227,2722.795166 
	C3383.275146,2670.989258 3424.181396,2619.196533 3461.628906,2564.805176 
	C3490.781982,2522.461182 3517.378418,2478.600830 3537.745361,2431.299316 
	C3544.300049,2416.076172 3550.101074,2400.245605 3553.813232,2384.132568 
	C3567.717773,2323.779297 3556.119141,2268.896484 3514.894775,2221.749023 
	C3488.757568,2191.856689 3455.642578,2172.039551 3417.498779,2161.793945 
	C3376.197998,2150.700684 3333.916260,2144.973877 3291.076660,2144.277832 
	C3273.082031,2143.985352 3255.079102,2144.213867 3237.079834,2144.215332 
	C2945.089844,2144.240967 2653.099854,2144.310547 2361.109863,2144.250488 
	C2316.230469,2144.241211 2272.015381,2149.266357 2228.474121,2160.105713 
	C2198.725098,2167.511230 2172.823486,2181.982910 2150.588135,2203.047607 
	C2126.811768,2225.572510 2110.656250,2252.765625 2100.292236,2287.192139 
M5028.332031,3550.000000 
	C5028.363281,3542.000732 5028.437012,3534.001221 5028.420410,3526.001953 
	C5027.927734,3291.406006 5027.464355,3056.810059 5026.831055,2822.214355 
	C5026.790039,2806.912354 5026.078125,2791.548340 5024.546875,2776.326660 
	C5020.125488,2732.357178 5002.367188,2694.205566 4971.636719,2662.564209 
	C4933.808594,2623.614502 4887.074707,2603.291992 4833.176758,2598.952637 
	C4765.436035,2593.498779 4706.787598,2613.064697 4659.528809,2662.907959 
	C4645.793457,2677.394043 4633.190430,2692.953125 4620.038086,2707.993652 
	C4617.513184,2710.880859 4614.845215,2713.643555 4611.637695,2717.120605 
	C4605.080078,2711.929199 4599.355469,2707.535889 4593.779785,2702.960693 
	C4558.129395,2673.709473 4520.222656,2647.848633 4479.346680,2626.405029 
	C4419.695801,2595.112305 4356.612793,2574.718506 4289.445312,2568.493164 
	C4216.145996,2561.698730 4144.350586,2570.204102 4074.717529,2594.163330 
	C3960.689209,2633.398682 3860.960693,2695.979004 3775.650146,2781.084961 
	C3700.176758,2856.377686 3647.316895,2945.540771 3615.428223,3047.273682 
	C3592.109131,3121.666992 3582.033936,3198.037354 3581.260010,3275.695557 
	C3580.674561,3334.443359 3586.228271,3392.782471 3595.648193,3450.791016 
	C3607.221191,3522.055176 3625.078125,3591.564209 3652.832520,3658.311035 
	C3688.886963,3745.018555 3739.102051,3822.256836 3809.917969,3884.614502 
	C3926.682617,3987.432129 4064.347412,4041.170898 4218.666992,4050.942383 
	C4322.024902,4057.486816 4418.067383,4030.519043 4505.811523,3975.377686 
	C4524.954590,3963.347656 4542.880859,3949.377441 4561.317871,3936.230469 
	C4568.366211,3931.204102 4574.999023,3925.545166 4582.298340,3920.929199 
	C4604.093750,3907.147949 4615.752930,3908.540039 4633.556641,3926.576416 
	C4637.296387,3930.364990 4640.739258,3934.454346 4644.207031,3938.500977 
	C4647.241699,3942.041992 4650.002930,3945.819824 4653.082031,3949.319336 
	C4700.912109,4003.676270 4760.811523,4027.649170 4833.016113,4021.101562 
	C4854.497070,4019.153809 4874.829102,4013.062012 4894.778320,4005.462646 
	C4955.234863,3982.432129 4995.514648,3939.905762 5016.413574,3878.820068 
	C5024.056152,3856.480469 5026.411621,3833.333496 5026.590332,3809.919922 
	C5027.240723,3724.614014 5027.755371,3639.306641 5028.332031,3550.000000 
M5863.927734,2965.884766 
	C5822.140137,3054.957275 5798.849121,3148.754150 5791.014648,3246.717285 
	C5788.084473,3283.355713 5788.371094,3319.957520 5788.339844,3356.612305 
	C5788.296387,3407.435791 5793.117188,3457.745361 5803.582520,3507.491699 
	C5833.292969,3648.716064 5900.077148,3769.392822 6006.119629,3867.346680 
	C6127.720703,3979.671875 6272.944824,4038.785645 6437.096680,4051.271973 
	C6545.233398,4059.497314 6651.513184,4046.892578 6754.423828,4011.905518 
	C6956.919922,3943.061768 7099.181152,3809.907959 7178.227051,3610.639648 
	C7207.421387,3537.042480 7223.068848,3460.232666 7229.253418,3381.318359 
	C7237.081543,3281.434570 7231.204102,3182.614990 7203.630371,3086.115234 
	C7140.777832,2866.150146 7003.907227,2711.671875 6790.900391,2626.389648 
	C6712.295410,2594.918457 6630.080078,2579.362061 6545.548340,2574.965332 
	C6471.902344,2571.134766 6399.009277,2575.550293 6327.027344,2591.918213 
	C6202.489258,2620.237061 6094.132324,2678.491699 6003.022461,2768.233887 
	C5945.449707,2824.942627 5900.144531,2890.412109 5863.927734,2965.884766 
M5639.945801,3474.000000 
	C5639.884277,3219.340088 5639.842773,2964.679932 5639.754395,2710.020020 
	C5639.697754,2547.358643 5639.521484,2384.697266 5639.533203,2222.035889 
	C5639.535156,2197.262451 5637.776367,2172.674072 5631.645996,2148.680420 
	C5611.726074,2070.710205 5563.268555,2020.529297 5484.657227,2001.419312 
	C5448.648926,1992.665894 5411.908203,1992.564331 5375.495605,1999.777466 
	C5305.385254,2013.666260 5256.470215,2053.733398 5229.689453,2120.150391 
	C5222.194824,2138.737793 5216.903809,2158.111572 5215.550293,2178.198242 
	C5214.028320,2200.784668 5212.504883,2223.426758 5212.463867,2246.047363 
	C5212.273438,2350.043213 5212.711426,2454.039795 5212.723633,2558.036133 
	C5212.770996,2966.023438 5212.708496,3374.010986 5212.864746,3781.998291 
	C5212.871094,3799.280029 5213.673828,3816.682373 5215.794434,3833.819336 
	C5221.409668,3879.184814 5238.449707,3920.011475 5267.895020,3955.177734 
	C5298.575684,3991.819092 5337.023438,4014.233398 5384.995117,4021.582520 
	C5483.654785,4036.696533 5582.457031,3983.675049 5622.447266,3887.714111 
	C5634.126465,3859.689453 5639.413086,3830.334229 5639.453125,3799.989258 
	C5639.594727,3692.659424 5639.780762,3585.329834 5639.945801,3474.000000 
z"/>
<path fill="#0072B1" opacity="1.000000" stroke="none" 
	d="
M1419.117676,6476.489258 
	C1440.883301,6478.666504 1461.960327,6481.685547 1482.971191,6485.111328 
	C1536.923828,6493.909180 1591.166504,6500.062500 1645.625854,6504.833496 
	C1727.430542,6511.999512 1809.356201,6513.469238 1891.360718,6511.546875 
	C1946.001343,6510.266113 2000.514282,6506.465820 2054.955566,6501.369629 
	C2266.749268,6481.542969 2473.051025,6435.265137 2676.278564,6373.717285 
	C2799.920410,6336.271973 2923.596680,6298.895020 3048.679443,6266.450195 
	C3080.248047,6258.261719 3111.819336,6249.725098 3143.826660,6243.654785 
	C3227.455811,6227.793457 3309.700928,6234.828613 3390.121826,6262.460938 
	C3526.867432,6309.445312 3665.198975,6351.073242 3805.520020,6386.010254 
	C3916.725098,6413.697754 4028.656982,6438.048340 4141.809082,6456.314941 
	C4210.849121,6467.460938 4280.008789,6478.126953 4349.388184,6486.828125 
	C4409.523926,6494.369629 4470.005859,6499.285156 4530.403320,6504.580078 
	C4679.343262,6517.637695 4828.618164,6519.577148 4977.950684,6515.392578 
	C5041.208496,6513.620117 5104.420410,6509.214355 5167.565918,6504.766113 
	C5216.739258,6501.302734 5265.893555,6496.912109 5314.844727,6491.138184 
	C5374.376465,6484.115723 5433.828125,6476.126953 5493.058594,6466.912109 
	C5591.142090,6451.652832 5688.477539,6432.339355 5785.187012,6409.874512 
	C5937.124023,6374.580078 6086.746582,6331.300781 6234.011230,6279.940918 
	C6430.497070,6211.415039 6622.282227,6131.820312 6806.788086,6035.228516 
	C7145.259277,5858.035156 7450.362305,5635.307129 7720.710938,5365.202148 
	C7729.652344,5356.269043 7737.732422,5346.473145 7746.204102,5337.070801 
	C7755.728027,5326.500000 7766.089844,5317.289062 7782.578125,5315.551758 
	C7785.368164,5319.330566 7787.311035,5322.966309 7787.717285,5326.767090 
	C7788.352051,5332.700684 7787.976074,5338.746582 7787.976074,5344.744629 
	C7787.980957,5656.010742 7787.989746,5967.276367 7787.951172,6278.542480 
	C7787.949219,6293.156250 7789.165527,6307.876953 7784.671387,6322.200195 
	C7783.896484,6324.668945 7784.013184,6327.495605 7784.100098,6330.145020 
	C7785.049316,6358.864258 7779.749023,6386.986328 7776.800293,6415.378418 
	C7772.176270,6459.903320 7763.022949,6503.427734 7751.219238,6546.335938 
	C7740.630371,6584.828613 7728.638672,6623.062012 7714.818848,6660.506836 
	C7697.745605,6706.766602 7676.434082,6751.383301 7652.371582,6794.407715 
	C7626.046875,6841.478516 7596.269531,6886.514648 7563.811523,6929.620605 
	C7549.847656,6948.164062 7533.319824,6964.766113 7519.175293,6983.186035 
	C7498.759766,7009.771484 7473.395508,7031.479980 7450.420898,7055.530762 
	C7428.776855,7078.188477 7404.337891,7097.801270 7379.846680,7117.115234 
	C7351.679199,7139.327637 7322.712402,7160.707520 7292.754395,7180.414062 
	C7265.561523,7198.300293 7236.972168,7214.198730 7208.273438,7229.625000 
	C7173.078125,7248.543457 7137.012695,7265.805664 7099.646973,7280.167969 
	C7048.030762,7300.007812 6995.960449,7318.310059 6941.419922,7328.659668 
	C6919.231934,7332.870117 6897.237305,7338.123535 6875.013184,7342.112305 
	C6860.014648,7344.803711 6844.785645,7346.267090 6829.628418,7348.003906 
	C6807.235352,7350.570312 6784.817383,7352.920898 6762.402344,7355.287109 
	C6758.435547,7355.706055 6754.431641,7355.895508 6750.441895,7355.943359 
	C6741.778320,7356.047363 6733.112793,7355.999023 6724.447754,7355.999023 
	C5275.427734,7356.000488 3826.407959,7356.003418 2377.388184,7355.977051 
	C2340.657715,7355.976562 2349.485596,7358.260254 2320.197754,7338.541992 
	C2309.739014,7331.500000 2300.005127,7323.387695 2289.636963,7316.201660 
	C2286.519287,7314.040527 2282.379150,7313.354004 2277.123535,7310.575195 
	C2273.978271,7306.321289 2272.972412,7302.928711 2270.773193,7300.729004 
	C2227.239990,7257.183594 2183.622559,7213.721191 2139.808350,7170.458984 
	C2136.733154,7167.421875 2131.997314,7166.065918 2128.033447,7163.928711 
	C2128.033447,7163.928711 2128.000000,7164.000000 2127.626953,7162.688477 
	C2106.768311,7141.077637 2086.343262,7120.715820 2065.725830,7100.550293 
	C2062.970215,7097.854980 2059.244141,7096.152832 2055.967529,7093.990234 
	C2054.855225,7088.347168 2050.792480,7085.008301 2046.654663,7081.552734 
	C2039.038940,7075.191895 2031.430054,7068.791992 2024.211914,7061.990234 
	C1996.221436,7035.614258 1969.328979,7007.974609 1940.182861,6982.955078 
	C1918.455444,6964.303711 1899.541382,6942.854004 1877.917847,6924.341309 
	C1851.648804,6901.851562 1827.706177,6877.060547 1802.925781,6853.084961 
	C1801.062012,6851.282227 1798.581421,6850.117188 1794.257568,6847.508301 
	C1790.737427,6845.548828 1789.347290,6844.736816 1787.957031,6843.924805 
	C1787.957153,6843.924805 1787.960571,6844.044434 1787.622192,6843.100586 
	C1786.177002,6841.411133 1785.070068,6840.665527 1783.963135,6839.919434 
	C1783.963257,6839.919434 1783.958252,6840.041992 1783.613037,6839.106445 
	C1782.166382,6837.419922 1781.064941,6836.669922 1779.963501,6835.919434 
	C1779.963501,6835.919434 1779.969849,6836.039062 1779.494385,6834.795898 
	C1764.633423,6819.101074 1750.404297,6804.487793 1735.735962,6790.329590 
	C1732.637573,6787.338379 1727.929932,6786.013672 1723.963867,6783.920898 
	C1723.963867,6783.920898 1723.959717,6784.041016 1723.643066,6783.083008 
	C1722.206665,6781.390625 1721.086914,6780.655762 1719.967041,6779.920898 
	C1719.967163,6779.920898 1719.956665,6780.040039 1719.572266,6778.898926 
	C1718.120117,6776.517090 1717.052368,6775.276855 1715.984375,6774.036621 
	C1712.507568,6769.315430 1709.947510,6763.263672 1705.384155,6760.118652 
	C1690.981934,6750.191406 1679.757935,6737.018555 1667.275391,6725.137695 
	C1636.991089,6696.312988 1607.487671,6666.609863 1576.199219,6638.922363 
	C1559.775757,6624.388672 1544.239624,6609.016113 1528.083130,6594.265625 
	C1508.027222,6575.954590 1486.964600,6558.739258 1467.063599,6540.267578 
	C1450.562622,6524.952637 1433.169434,6510.253906 1421.589844,6490.397461 
	C1419.311035,6486.489746 1416.094238,6482.637695 1419.117676,6476.489258 
z"/>
<path fill="#0275B4" opacity="1.000000" stroke="none" 
	d="
M6861.609863,7411.995117 
	C6841.257324,7412.647461 6822.646973,7413.159180 6804.039551,7413.782715 
	C6792.059570,7414.184570 6780.086914,7415.098145 6768.106934,7415.188477 
	C6694.813477,7415.741211 6621.518555,7416.124023 6546.399902,7416.551758 
	C6537.260742,7416.281250 6529.946289,7415.795898 6522.631348,7415.794434 
	C6242.165039,7415.749512 5961.698730,7415.746582 5681.232422,7415.753418 
	C5673.906250,7415.753418 5666.580078,7415.928711 5657.342285,7416.276855 
	C5526.806152,7416.215820 5398.181152,7415.896484 5269.556641,7415.597168 
	C5262.227051,7415.580078 5254.897461,7415.727051 5245.706543,7416.123047 
	C5171.226562,7416.224609 5098.607910,7415.811523 5025.989258,7415.807617 
	C4181.838379,7415.761230 3337.687744,7415.778320 2493.536865,7415.782715 
	C2488.873535,7415.782715 2484.210449,7415.857910 2477.687500,7416.224609 
	C2461.023926,7415.075195 2446.220459,7413.600098 2428.549561,7410.945312 
	C2418.371582,7407.365234 2411.143066,7406.727539 2404.132568,7410.770020 
	C2357.596436,7410.929199 2311.060303,7411.088379 2262.784424,7410.926270 
	C2267.572266,7409.815918 2274.092773,7408.418945 2280.628418,7408.346191 
	C2304.618408,7408.077637 2328.613525,7408.314941 2352.606201,7408.211914 
	C2359.149170,7408.184082 2365.689941,7407.632812 2373.163818,7407.277344 
	C2373.934814,7401.157715 2374.565674,7396.150391 2375.248535,7390.729492 
	C2376.798096,7390.029785 2378.514404,7388.642578 2380.292480,7388.558105 
	C2388.270508,7388.175781 2396.266357,7388.037598 2404.255615,7388.037598 
	C3635.236816,7388.018555 4866.217773,7388.021484 6097.199219,7388.018066 
	C6318.469238,7388.017090 6539.739258,7387.999512 6761.009277,7387.968262 
	C6772.973633,7387.966309 6785.004883,7388.799805 6796.678223,7384.896484 
	C6799.136719,7384.074219 6801.954102,7384.062012 6804.599609,7384.102051 
	C6824.671875,7384.404785 6844.084473,7379.073730 6863.849609,7377.206055 
	C6902.426270,7373.559570 6939.644531,7363.311523 6977.298340,7355.323242 
	C6999.358887,7350.642090 7021.133789,7343.959473 7042.421387,7336.434082 
	C7078.146484,7323.804688 7113.469238,7310.013184 7148.770508,7296.221191 
	C7161.145020,7291.386230 7173.006836,7285.216797 7185.014648,7279.473145 
	C7237.371094,7254.428711 7287.464355,7225.513184 7335.271484,7192.548828 
	C7361.577148,7174.409180 7386.521484,7154.577637 7411.481934,7134.694336 
	C7446.424316,7106.860352 7478.518555,7076.007812 7509.818848,7044.236328 
	C7527.108887,7026.686035 7542.722168,7007.729492 7558.191895,6988.619629 
	C7570.729980,6973.131348 7583.843262,6958.083984 7595.859375,6942.204102 
	C7616.331055,6915.148926 7635.483887,6887.206543 7653.439941,6858.333984 
	C7674.582520,6824.338379 7693.999512,6789.473633 7711.078613,6753.365234 
	C7724.440430,6725.115234 7737.713867,6696.761719 7747.842773,6667.067871 
	C7751.689941,6655.791016 7757.081543,6645.041016 7762.750000,6633.079102 
	C7760.761719,6645.019531 7758.377441,6658.098633 7754.739258,6670.818848 
	C7653.391602,7025.178711 7370.955566,7297.728027 7012.792969,7386.729492 
	C6963.654785,7398.939453 6913.786133,7407.188965 6861.609863,7411.995117 
z"/>
<path fill="#3C9CD2" opacity="1.000000" stroke="none" 
	d="
M2128.466797,7165.202637 
	C2131.997314,7166.065918 2136.733154,7167.421875 2139.808350,7170.458984 
	C2183.622559,7213.721191 2227.239990,7257.183594 2270.773193,7300.729004 
	C2272.972412,7302.928711 2273.978271,7306.321289 2275.650391,7310.526367 
	C2272.246826,7308.885742 2268.527344,7306.084961 2265.248779,7302.839355 
	C2222.381104,7260.401855 2179.565430,7217.911133 2136.780273,7175.390137 
	C2133.973145,7172.600586 2131.518555,7169.456055 2128.466797,7165.202637 
z"/>
<path fill="#3C9CD2" opacity="1.000000" stroke="none" 
	d="
M2056.300537,7095.448242 
	C2059.244141,7096.152832 2062.970215,7097.854980 2065.725830,7100.550293 
	C2086.343262,7120.715820 2106.768311,7141.077637 2127.657227,7162.663086 
	C2124.569336,7162.301758 2120.326660,7161.428711 2117.706299,7158.884277 
	C2097.806396,7139.562012 2078.213379,7119.922363 2058.575439,7100.331055 
	C2057.680176,7099.437988 2057.269775,7098.059082 2056.300537,7095.448242 
z"/>
<path fill="#369BD3" opacity="1.000000" stroke="none" 
	d="
M1724.524414,6785.137207 
	C1727.929932,6786.013672 1732.637573,6787.338379 1735.735962,6790.329590 
	C1750.404297,6804.487793 1764.633423,6819.101074 1779.552734,6834.782715 
	C1776.104736,6833.942871 1771.360718,6832.659668 1768.270996,6829.667969 
	C1753.628540,6815.485352 1739.437134,6800.836426 1724.524414,6785.137207 
z"/>
<path fill="#369BD3" opacity="1.000000" stroke="none" 
	d="
M1716.295898,6775.268555 
	C1717.052368,6775.276855 1718.120117,6776.517090 1719.631592,6778.899414 
	C1718.919189,6778.860840 1717.763306,6777.680664 1716.295898,6775.268555 
z"/>
<path fill="#369BD3" opacity="1.000000" stroke="none" 
	d="
M1788.648071,6844.981445 
	C1789.347290,6844.736816 1790.737427,6845.548828 1793.034912,6847.192383 
	C1792.407715,6847.362305 1790.873413,6846.700195 1788.648071,6844.981445 
z"/>
<path fill="#369BD3" opacity="1.000000" stroke="none" 
	d="
M1784.390137,6840.835449 
	C1785.070068,6840.665527 1786.177002,6841.411133 1787.682007,6843.094727 
	C1786.992432,6843.272461 1785.904663,6842.511719 1784.390137,6840.835449 
z"/>
<path fill="#369BD3" opacity="1.000000" stroke="none" 
	d="
M1780.388306,6836.837402 
	C1781.064941,6836.669922 1782.166382,6837.419922 1783.674072,6839.103027 
	C1782.991333,6839.275391 1781.902222,6838.515137 1780.388306,6836.837402 
z"/>
<path fill="#369BD3" opacity="1.000000" stroke="none" 
	d="
M1720.411377,6780.822266 
	C1721.086914,6780.655762 1722.206665,6781.390625 1723.702881,6783.080078 
	C1723.004639,6783.264648 1721.930298,6782.494141 1720.411377,6780.822266 
z"/>
<path fill="#0180C7" opacity="1.000000" stroke="none" 
	d="
M2405.799805,7411.153809 
	C2411.143066,7406.727539 2418.371582,7407.365234 2426.821777,7410.576172 
	C2421.129883,7411.436523 2414.298584,7411.487305 2405.799805,7411.153809 
z"/>
<path fill="#0280C7" opacity="1.000000" stroke="none" 
	d="
M2100.699707,2285.592285 
	C2110.656250,2252.765625 2126.811768,2225.572510 2150.588135,2203.047607 
	C2172.823486,2181.982910 2198.725098,2167.511230 2228.474121,2160.105713 
	C2272.015381,2149.266357 2316.230469,2144.241211 2361.109863,2144.250488 
	C2653.099854,2144.310547 2945.089844,2144.240967 3237.079834,2144.215332 
	C3255.079102,2144.213867 3273.082031,2143.985352 3291.076660,2144.277832 
	C3333.916260,2144.973877 3376.197998,2150.700684 3417.498779,2161.793945 
	C3455.642578,2172.039551 3488.757568,2191.856689 3514.894775,2221.749023 
	C3556.119141,2268.896484 3567.717773,2323.779297 3553.813232,2384.132568 
	C3550.101074,2400.245605 3544.300049,2416.076172 3537.745361,2431.299316 
	C3517.378418,2478.600830 3490.781982,2522.461182 3461.628906,2564.805176 
	C3424.181396,2619.196533 3383.275146,2670.989258 3342.407227,2722.795166 
	C3133.098877,2988.125244 2923.677002,3253.366211 2714.329590,3518.665283 
	C2693.687744,3544.823975 2673.236816,3571.134033 2652.821289,3597.469727 
	C2650.139648,3600.928955 2648.199951,3604.962891 2644.659668,3610.804688 
	C2653.390381,3611.118652 2659.790039,3611.555664 2666.189209,3611.548340 
	C2796.851562,3611.399658 2927.513672,3611.063477 3058.176025,3611.054688 
	C3164.838867,3611.047607 3271.501465,3611.457031 3378.164307,3611.599854 
	C3409.651367,3611.642090 3440.695312,3614.916504 3471.001709,3623.737061 
	C3478.660400,3625.965820 3486.255615,3628.538330 3493.656494,3631.509521 
	C3544.639404,3651.978027 3578.187012,3688.402344 3592.805420,3741.524658 
	C3605.104492,3786.219482 3605.626221,3831.138672 3591.879639,3875.598389 
	C3578.011230,3920.451904 3549.585693,3953.660645 3508.073730,3975.469727 
	C3480.570312,3989.918945 3451.025146,3997.761719 3420.151855,4000.158203 
	C3402.223145,4001.549805 3384.202637,4002.329102 3366.220703,4002.382080 
	C3153.563232,4003.008789 2940.905273,4003.455078 2728.247314,4003.929932 
	C2637.584229,4004.132324 2546.921387,4004.259277 2456.258301,4004.480713 
	C2404.923584,4004.605957 2353.599365,4004.679199 2302.395508,4000.082275 
	C2273.125732,3997.454102 2244.246582,3992.921631 2216.058594,3984.348633 
	C2139.965820,3961.205078 2093.394287,3909.790039 2072.366455,3834.120850 
	C2059.012695,3786.067383 2063.920654,3739.078613 2081.968506,3693.093750 
	C2096.476807,3656.127197 2118.012451,3623.370605 2142.452148,3592.343262 
	C2182.873047,3541.027344 2223.156738,3489.602783 2263.587891,3438.294678 
	C2482.246094,3160.812744 2700.954590,2883.370117 2919.565918,2605.851074 
	C2936.862549,2583.893555 2953.553223,2561.458740 2970.789795,2538.899902 
	C2964.560303,2525.437988 2954.210938,2519.839600 2940.447998,2519.986572 
	C2930.457764,2520.093018 2920.472656,2521.102051 2910.486328,2521.083252 
	C2729.826416,2520.742920 2549.166748,2520.190674 2368.506592,2519.978027 
	C2326.361084,2519.928467 2284.713135,2515.834473 2243.324951,2508.132324 
	C2168.534180,2494.214844 2113.187012,2440.699463 2098.000732,2366.500000 
	C2092.584229,2340.034668 2093.685303,2313.459717 2100.699707,2285.592285 
z"/>
<path fill="#0280C7" opacity="1.000000" stroke="none" 
	d="
M5028.326660,3552.000000 
	C5027.755371,3639.306641 5027.240723,3724.614014 5026.590332,3809.919922 
	C5026.411621,3833.333496 5024.056152,3856.480469 5016.413574,3878.820068 
	C4995.514648,3939.905762 4955.234863,3982.432129 4894.778320,4005.462646 
	C4874.829102,4013.062012 4854.497070,4019.153809 4833.016113,4021.101562 
	C4760.811523,4027.649170 4700.912109,4003.676270 4653.082031,3949.319336 
	C4650.002930,3945.819824 4647.241699,3942.041992 4644.207031,3938.500977 
	C4640.739258,3934.454346 4637.296387,3930.364990 4633.556641,3926.576416 
	C4615.752930,3908.540039 4604.093750,3907.147949 4582.298340,3920.929199 
	C4574.999023,3925.545166 4568.366211,3931.204102 4561.317871,3936.230469 
	C4542.880859,3949.377441 4524.954590,3963.347656 4505.811523,3975.377686 
	C4418.067383,4030.519043 4322.024902,4057.486816 4218.666992,4050.942383 
	C4064.347412,4041.170898 3926.682617,3987.432129 3809.917969,3884.614502 
	C3739.102051,3822.256836 3688.886963,3745.018555 3652.832520,3658.311035 
	C3625.078125,3591.564209 3607.221191,3522.055176 3595.648193,3450.791016 
	C3586.228271,3392.782471 3580.674561,3334.443359 3581.260010,3275.695557 
	C3582.033936,3198.037354 3592.109131,3121.666992 3615.428223,3047.273682 
	C3647.316895,2945.540771 3700.176758,2856.377686 3775.650146,2781.084961 
	C3860.960693,2695.979004 3960.689209,2633.398682 4074.717529,2594.163330 
	C4144.350586,2570.204102 4216.145996,2561.698730 4289.445312,2568.493164 
	C4356.612793,2574.718506 4419.695801,2595.112305 4479.346680,2626.405029 
	C4520.222656,2647.848633 4558.129395,2673.709473 4593.779785,2702.960693 
	C4599.355469,2707.535889 4605.080078,2711.929199 4611.637695,2717.120605 
	C4614.845215,2713.643555 4617.513184,2710.880859 4620.038086,2707.993652 
	C4633.190430,2692.953125 4645.793457,2677.394043 4659.528809,2662.907959 
	C4706.787598,2613.064697 4765.436035,2593.498779 4833.176758,2598.952637 
	C4887.074707,2603.291992 4933.808594,2623.614502 4971.636719,2662.564209 
	C5002.367188,2694.205566 5020.125488,2732.357178 5024.546875,2776.326660 
	C5026.078125,2791.548340 5026.790039,2806.912354 5026.831055,2822.214355 
	C5027.464355,3056.810059 5027.927734,3291.406006 5028.420410,3526.001953 
	C5028.437012,3534.001221 5028.363281,3542.000732 5028.326660,3552.000000 
M4102.479492,3052.535889 
	C4071.814697,3086.802979 4050.336182,3126.298584 4035.726318,3169.716064 
	C4020.100830,3216.152344 4012.784180,3263.947754 4011.269775,3312.845459 
	C4008.845947,3391.093994 4029.092285,3462.990723 4070.827393,3528.942871 
	C4091.052734,3560.903809 4117.199707,3587.333984 4148.867676,3607.958984 
	C4205.588867,3644.901367 4267.635742,3660.411133 4335.185059,3652.892578 
	C4407.911133,3644.797363 4468.431641,3613.357666 4516.634766,3558.279541 
	C4541.060059,3530.371338 4558.818848,3498.453613 4571.829590,3463.958252 
	C4602.746094,3381.992188 4607.972656,3298.047363 4589.672363,3212.546143 
	C4578.665039,3161.117676 4558.652832,3113.602783 4527.229980,3071.162842 
	C4494.102051,3026.420410 4451.081055,2995.249756 4398.179688,2978.027588 
	C4348.328125,2961.798096 4297.560547,2959.773193 4246.320801,2970.205078 
	C4190.399414,2981.589844 4143.226074,3008.691895 4102.479492,3052.535889 
z"/>
<path fill="#0280C7" opacity="1.000000" stroke="none" 
	d="
M5864.527344,2964.502441 
	C5900.144531,2890.412109 5945.449707,2824.942627 6003.022461,2768.233887 
	C6094.132324,2678.491699 6202.489258,2620.237061 6327.027344,2591.918213 
	C6399.009277,2575.550293 6471.902344,2571.134766 6545.548340,2574.965332 
	C6630.080078,2579.362061 6712.295410,2594.918457 6790.900391,2626.389648 
	C7003.907227,2711.671875 7140.777832,2866.150146 7203.630371,3086.115234 
	C7231.204102,3182.614990 7237.081543,3281.434570 7229.253418,3381.318359 
	C7223.068848,3460.232666 7207.421387,3537.042480 7178.227051,3610.639648 
	C7099.181152,3809.907959 6956.919922,3943.061768 6754.423828,4011.905518 
	C6651.513184,4046.892578 6545.233398,4059.497314 6437.096680,4051.271973 
	C6272.944824,4038.785645 6127.720703,3979.671875 6006.119629,3867.346680 
	C5900.077148,3769.392822 5833.292969,3648.716064 5803.582520,3507.491699 
	C5793.117188,3457.745361 5788.296387,3407.435791 5788.339844,3356.612305 
	C5788.371094,3319.957520 5788.084473,3283.355713 5791.014648,3246.717285 
	C5798.849121,3148.754150 5822.140137,3054.957275 5864.527344,2964.502441 
M6231.618164,3433.983398 
	C6243.287598,3471.827148 6260.733887,3506.812988 6283.379883,3539.278320 
	C6300.307129,3563.545166 6320.621582,3584.284668 6344.698242,3601.617676 
	C6443.194824,3672.525391 6575.415527,3672.231445 6673.483398,3600.697021 
	C6719.541992,3567.099854 6751.243652,3522.671631 6771.883789,3470.085693 
	C6805.520508,3384.387695 6809.684570,3296.443115 6789.810059,3207.139648 
	C6778.839355,3157.848145 6758.924316,3112.294922 6728.306152,3071.814453 
	C6691.282715,3022.866455 6643.352539,2989.697510 6583.877441,2974.104004 
	C6548.744141,2964.893066 6512.902832,2963.906006 6476.807129,2967.373291 
	C6430.101074,2971.859619 6387.219238,2986.856934 6348.526367,3013.355957 
	C6299.744141,3046.764648 6266.230957,3092.368652 6244.126953,3146.654785 
	C6226.384766,3190.229248 6217.428223,3235.719238 6215.463867,3282.726807 
	C6213.366211,3332.901367 6215.001465,3382.607178 6231.618164,3433.983398 
z"/>
<path fill="#0281C7" opacity="1.000000" stroke="none" 
	d="
M5639.947266,3476.000000 
	C5639.780762,3585.329834 5639.594727,3692.659424 5639.453125,3799.989258 
	C5639.413086,3830.334229 5634.126465,3859.689453 5622.447266,3887.714111 
	C5582.457031,3983.675049 5483.654785,4036.696533 5384.995117,4021.582520 
	C5337.023438,4014.233398 5298.575684,3991.819092 5267.895020,3955.177734 
	C5238.449707,3920.011475 5221.409668,3879.184814 5215.794434,3833.819336 
	C5213.673828,3816.682373 5212.871094,3799.280029 5212.864746,3781.998291 
	C5212.708496,3374.010986 5212.770996,2966.023438 5212.723633,2558.036133 
	C5212.711426,2454.039795 5212.273438,2350.043213 5212.463867,2246.047363 
	C5212.504883,2223.426758 5214.028320,2200.784668 5215.550293,2178.198242 
	C5216.903809,2158.111572 5222.194824,2138.737793 5229.689453,2120.150391 
	C5256.470215,2053.733398 5305.385254,2013.666260 5375.495605,1999.777466 
	C5411.908203,1992.564331 5448.648926,1992.665894 5484.657227,2001.419312 
	C5563.268555,2020.529297 5611.726074,2070.710205 5631.645996,2148.680420 
	C5637.776367,2172.674072 5639.535156,2197.262451 5639.533203,2222.035889 
	C5639.521484,2384.697266 5639.697754,2547.358643 5639.754395,2710.020020 
	C5639.842773,2964.679932 5639.884277,3219.340088 5639.947266,3476.000000 
z"/>
<path fill="#FCFEFE" opacity="1.000000" stroke="none" 
	d="
M4103.434570,3051.480713 
	C4143.226074,3008.691895 4190.399414,2981.589844 4246.320801,2970.205078 
	C4297.560547,2959.773193 4348.328125,2961.798096 4398.179688,2978.027588 
	C4451.081055,2995.249756 4494.102051,3026.420410 4527.229980,3071.162842 
	C4558.652832,3113.602783 4578.665039,3161.117676 4589.672363,3212.546143 
	C4607.972656,3298.047363 4602.746094,3381.992188 4571.829590,3463.958252 
	C4558.818848,3498.453613 4541.060059,3530.371338 4516.634766,3558.279541 
	C4468.431641,3613.357666 4407.911133,3644.797363 4335.185059,3652.892578 
	C4267.635742,3660.411133 4205.588867,3644.901367 4148.867676,3607.958984 
	C4117.199707,3587.333984 4091.052734,3560.903809 4070.827393,3528.942871 
	C4029.092285,3462.990723 4008.845947,3391.093994 4011.269775,3312.845459 
	C4012.784180,3263.947754 4020.100830,3216.152344 4035.726318,3169.716064 
	C4050.336182,3126.298584 4071.814697,3086.802979 4103.434570,3051.480713 
z"/>
<path fill="#FCFEFE" opacity="1.000000" stroke="none" 
	d="
M6231.166016,3432.446289 
	C6215.001465,3382.607178 6213.366211,3332.901367 6215.463867,3282.726807 
	C6217.428223,3235.719238 6226.384766,3190.229248 6244.126953,3146.654785 
	C6266.230957,3092.368652 6299.744141,3046.764648 6348.526367,3013.355957 
	C6387.219238,2986.856934 6430.101074,2971.859619 6476.807129,2967.373291 
	C6512.902832,2963.906006 6548.744141,2964.893066 6583.877441,2974.104004 
	C6643.352539,2989.697510 6691.282715,3022.866455 6728.306152,3071.814453 
	C6758.924316,3112.294922 6778.839355,3157.848145 6789.810059,3207.139648 
	C6809.684570,3296.443115 6805.520508,3384.387695 6771.883789,3470.085693 
	C6751.243652,3522.671631 6719.541992,3567.099854 6673.483398,3600.697021 
	C6575.415527,3672.231445 6443.194824,3672.525391 6344.698242,3601.617676 
	C6320.621582,3584.284668 6300.307129,3563.545166 6283.379883,3539.278320 
	C6260.733887,3506.812988 6243.287598,3471.827148 6231.166016,3432.446289 
z"/>
</svg>